<!--?xml version="1.0" standalone="no"?-->
              <svg id="sw-js-blob-svg" viewBox="0 0 100 100" xmlns="http://www.w3.org/2000/svg" version="1.1">
                    <defs> 
                        <linearGradient id="sw-gradient" x1="0" x2="1" y1="1" y2="0">
                            <stop id="stop1" stop-color="rgba(171, 135, 255, 1)" offset="0%"></stop>
                            <stop id="stop2" stop-color="rgba(255, 172, 228, 0)" offset="100%"></stop>
                        </linearGradient>
                    </defs>
                <path fill="url(#sw-gradient)" d="M24.7,-30C31.3,-23.8,35.5,-15.4,37,-6.6C38.5,2.3,37.3,11.6,33.1,19.4C29,27.3,21.8,33.7,13.3,37.1C4.8,40.5,-5.1,40.8,-14.3,38C-23.4,35.2,-31.9,29.2,-35.8,21.3C-39.7,13.3,-39,3.3,-36.6,-5.8C-34.2,-14.8,-30.1,-22.9,-23.7,-29.1C-17.3,-35.2,-8.7,-39.6,0.2,-39.8C9,-40,18,-36.1,24.7,-30Z" width="100%" height="100%" transform="translate(50 50)" stroke-width="0" style="transition: all 0.3s ease 0s;" stroke="url(#sw-gradient)"></path>
              </svg>